<?xml version="1.0" encoding="utf-8"?>
<!-- Generator: Adobe Illustrator 23.1.0, SVG Export Plug-In . SVG Version: 6.00 Build 0)  -->
<svg version="1.1" xmlns="http://www.w3.org/2000/svg" xmlns:xlink="http://www.w3.org/1999/xlink" x="0px" y="0px"
	 viewBox="0 0 500 500" style="enable-background:new 0 0 500 500;" xml:space="preserve">
<style type="text/css">
	.st0{display:none;}
	.st1{display:inline;}
	.st2{fill:#2B2B2B;}
	.st3{opacity:0.84;}
	.st4{fill:url(#SVGID_1_);}
</style>
<g id="Layer_2" class="st0">
	<g class="st1">
		<rect x="-1" y="1" class="st2" width="501" height="499"/>
	</g>
</g>
<g id="Layer_1">
	<g class="st3">
		<linearGradient id="SVGID_1_" gradientUnits="userSpaceOnUse" x1="207.3006" y1="72.3347" x2="318.9572" y2="427.7975">
			<stop  offset="0" style="stop-color:#FCEE21"/>
			<stop  offset="0" style="stop-color:#5C55FF"/>
			<stop  offset="1" style="stop-color:#00A5E9"/>
			<stop  offset="1" style="stop-color:#FBB03B"/>
		</linearGradient>
		<path class="st4" d="M263.2,103.7c30.4,0,60.9,9.9,85.7,27.8c25.7,18.5,44.3,44.4,53.8,74.7c11.7,37.3,8.2,76.9-9.9,111.5
			c-18.1,34.6-48.6,60.2-85.9,71.9c-14.3,4.5-29.1,6.8-43.9,6.8c-30.4,0-60.9-9.9-85.7-27.8c-25.7-18.5-44.2-44.4-53.8-74.7
			c-11.7-37.3-8.2-76.9,9.9-111.5c18.1-34.6,48.6-60.2,85.8-71.9C233.6,106,248.4,103.7,263.2,103.7 M263.2,63.7
			c-18.5,0-37.3,2.8-55.9,8.6C109.1,103.2,54.6,207.7,85.4,305.9c25,79.6,98.5,130.5,177.7,130.5c18.5,0,37.3-2.8,55.9-8.6
			c98.2-30.8,152.7-135.4,121.9-233.6C415.9,114.7,342.4,63.7,263.2,63.7L263.2,63.7z"/>
	</g>
</g>
<g id="Layer_3">
	
		<image style="overflow:visible;" width="2413" height="1920" xlink:href="banner_img.png"  transform="matrix(0.1827 0 0 0.1827 13.1729 84.894)">
	</image>
</g>
</svg>
